<?xml version="1.0" standalone="no"?>
<!DOCTYPE svg PUBLIC "-//W3C//DTD SVG 20010904//EN"
 "http://www.w3.org/TR/2001/REC-SVG-20010904/DTD/svg10.dtd">
<svg version="1.0" xmlns="http://www.w3.org/2000/svg"
 width="1024.000000pt" height="1024.000000pt" viewBox="0 0 1024.000000 1024.000000"
 preserveAspectRatio="xMidYMid meet">
<metadata>
Created by potrace 1.14, written by Peter Selinger 2001-2017
</metadata>
<g transform="translate(0.000000,1024.000000) scale(0.100000,-0.100000)"
fill="#000000" stroke="none">
<path d="M6125 8783 c-11 -2 -43 -8 -71 -14 -28 -5 -64 -12 -80 -15 -26 -4
-205 -75 -849 -334 -110 -44 -209 -85 -220 -90 -11 -5 -65 -27 -120 -48 -112
-44 -569 -228 -600 -242 -20 -9 -350 -142 -675 -272 -96 -38 -188 -76 -205
-83 -16 -7 -122 -50 -235 -95 -113 -45 -218 -88 -235 -95 -16 -7 -172 -70
-345 -139 -173 -70 -324 -131 -335 -136 -11 -5 -94 -39 -185 -75 -91 -36 -174
-70 -185 -75 -11 -5 -193 -79 -405 -164 -595 -239 -614 -246 -635 -256 -11 -5
-126 -52 -256 -104 -130 -52 -260 -106 -289 -121 -66 -33 -130 -97 -151 -151
-19 -49 -13 -78 51 -229 23 -55 66 -161 97 -235 126 -310 146 -356 159 -371 8
-8 14 -25 14 -36 0 -11 14 -54 31 -94 18 -41 37 -87 44 -104 7 -16 52 -127
100 -245 48 -118 98 -235 110 -260 35 -69 86 -113 225 -195 70 -41 136 -83
147 -92 18 -16 60 -109 125 -278 10 -27 25 -63 33 -80 7 -16 36 -87 64 -156
27 -69 72 -180 99 -245 28 -65 84 -204 127 -309 42 -104 83 -203 90 -220 7
-16 28 -66 45 -110 39 -99 55 -125 79 -125 28 0 128 46 134 62 2 8 -36 113
-85 233 -49 121 -128 315 -175 430 -47 116 -91 224 -99 240 -7 17 -22 54 -34
83 l-20 53 23 9 c124 49 153 60 166 60 12 0 262 -149 446 -265 28 -18 93 -58
145 -90 52 -32 257 -157 455 -278 454 -278 475 -289 586 -313 93 -20 305 -25
409 -10 55 8 238 64 295 90 57 27 108 46 119 46 6 0 19 -19 28 -43 49 -121
209 -515 217 -532 13 -29 69 -167 141 -345 34 -85 68 -168 75 -185 7 -16 34
-82 60 -145 26 -63 62 -151 80 -195 18 -44 57 -137 85 -207 29 -70 59 -129 67
-132 19 -8 125 30 140 50 15 21 14 26 -57 199 -34 83 -111 272 -172 420 -61
149 -123 302 -139 340 -16 39 -29 75 -29 81 0 6 66 37 148 69 81 32 167 68
192 81 67 33 111 104 105 170 -2 27 -66 198 -115 309 -26 60 -129 318 -132
333 -3 14 42 34 417 184 110 44 214 86 230 93 95 44 239 95 246 88 7 -7 117
-272 202 -488 64 -160 179 -216 318 -157 l45 20 23 -62 c13 -33 32 -79 42
-101 10 -22 28 -65 39 -95 12 -30 28 -68 35 -85 7 -16 37 -88 65 -160 29 -71
60 -148 70 -170 9 -22 46 -111 81 -198 49 -123 68 -159 85 -163 11 -3 46 6 77
20 46 20 57 30 57 48 0 21 -92 252 -322 808 -83 200 -87 216 -71 228 10 7 29
16 43 19 35 8 75 38 106 78 27 36 39 112 23 150 -112 267 -238 589 -232 594 4
4 46 22 93 40 47 18 99 39 115 46 17 7 134 54 260 105 127 50 244 98 260 105
95 42 160 64 165 58 4 -5 57 -134 120 -288 62 -154 123 -296 137 -316 37 -55
95 -84 173 -84 43 1 76 7 99 19 19 10 37 14 42 9 5 -5 86 -198 180 -428 94
-231 179 -438 188 -460 9 -22 27 -62 41 -90 21 -43 29 -49 50 -46 42 5 115 45
118 64 2 9 -90 245 -203 523 -114 278 -204 509 -199 513 5 5 31 17 58 27 77
28 126 90 131 164 1 22 -25 113 -36 125 -5 5 -9 15 -9 22 0 7 -13 42 -30 78
-16 36 -30 70 -30 75 0 6 -4 18 -10 28 -5 9 -31 69 -56 132 -25 63 -52 129
-59 145 -7 17 -16 39 -19 51 -7 23 -12 21 269 132 221 88 377 151 400 162 11
5 43 18 70 29 28 10 73 28 101 39 l51 20 47 -116 c27 -64 54 -130 61 -147 7
-16 34 -82 59 -145 26 -63 53 -129 61 -147 8 -17 15 -35 15 -40 0 -19 65 -86
96 -99 63 -26 108 -18 298 58 100 39 183 70 186 68 3 -2 24 -51 48 -109 23
-58 47 -115 52 -126 5 -11 35 -83 66 -160 31 -77 65 -159 75 -182 10 -23 19
-44 19 -47 0 -12 152 -371 162 -383 16 -19 47 -16 106 12 38 18 52 30 52 45 0
18 -32 100 -130 335 -16 39 -91 221 -166 405 -74 184 -201 493 -280 687 -79
193 -144 355 -144 360 0 4 18 17 40 27 76 36 146 111 157 166 11 54 4 115 -18
168 -5 12 -13 32 -18 45 -4 12 -18 45 -30 72 -11 28 -62 151 -112 275 -50 124
-103 248 -116 275 -14 28 -30 70 -38 95 -7 25 -71 187 -142 360 -123 301 -131
317 -180 365 -44 44 -207 145 -537 334 -22 13 -104 61 -181 106 -77 46 -156
92 -175 103 -19 11 -174 102 -345 202 -322 190 -363 214 -405 237 -14 8 -37
22 -52 31 -16 9 -155 95 -310 191 -156 95 -299 184 -318 196 -66 44 -157 76
-275 100 -35 7 -270 13 -300 8z"/>
</g>
</svg>
